<svg xmlns="http://www.w3.org/2000/svg" version="1.1" viewBox="1.8374884128570557 1.5679206848144531 623.0083618164062 245.7290802001953" width="626.00" height="249.00">
<g stroke-width="2.00" fill="none" stroke-linecap="butt">
<path stroke="#7a60ae" d="&#10;  M 588.13 17.26&#10;  Q 563.29 32.67 532.61 40.22&#10;  C 501.17 47.95 471.38 52.88 439.30 53.49"/>
<path stroke="#597abd" d="&#10;  M 616.07 47.51&#10;  C 593.29 57.73 571.60 68.13 551.40 81.55"/>
<path stroke="#5c9dc8" d="&#10;  M 551.40 81.55&#10;  Q 537.79 72.71 524.26 67.72&#10;  C 491.90 55.78 457.19 63.90 427.67 79.44&#10;  Q 420.48 83.23 413.25 87.45"/>
<path stroke="#4497cd" d="&#10;  M 624.80 83.77&#10;  Q 622.70 83.73 621.79 85.55&#10;  C 618.48 92.14 614.17 97.66 606.91 100.14&#10;  C 596.91 103.56 588.65 101.34 579.28 97.70"/>
<path stroke="#4baed5" d="&#10;  M 579.28 97.70&#10;  Q 565.02 90.43 551.40 81.55"/>
<path stroke="#47bad9" d="&#10;  M 579.28 97.70&#10;  Q 576.85 98.19 580.68 100.18&#10;  A 0.12 0.12 0.0 0 1 580.60 100.41&#10;  L 576.47 99.40&#10;  A 0.11 0.07 6.9 0 0 576.34 99.46&#10;  Q 576.34 99.52 576.40 99.54&#10;  Q 579.12 100.52 583.45 102.06&#10;  A 0.11 0.10 15.6 0 1 583.52 102.18&#10;  L 583.45 102.44&#10;  A 0.38 0.38 0.0 0 1 582.99 102.72&#10;  L 575.48 100.84"/>
<path stroke="#6c95c6" d="&#10;  M 575.48 100.84&#10;  Q 574.13 100.46 573.39 99.75"/>
<path stroke="#52a6cf" d="&#10;  M 573.39 99.75&#10;  Q 560.97 92.03 548.49 84.51&#10;  Q 539.25 78.95 529.14 74.99"/>
<path stroke="#6c95c6" d="&#10;  M 529.14 74.99&#10;  Q 527.26 73.83 524.89 73.42&#10;  A 0.86 0.81 69.3 0 1 524.48 73.22&#10;  Q 524.29 73.06 524.08 72.97&#10;  Q 503.80 64.68 481.68 66.38&#10;  Q 475.22 66.88 465.57 68.73"/>
<path stroke="#6399c7" d="&#10;  M 465.57 68.73&#10;  Q 443.43 73.48 423.73 84.26&#10;  Q 402.72 95.74 384.26 110.29"/>
<path stroke="#55a3cd" d="&#10;  M 384.26 110.29&#10;  L 362.77 127.10&#10;  A 0.40 0.33 14.0 0 1 362.60 127.18&#10;  L 362.34 127.22&#10;  A 0.15 0.15 0.0 0 0 362.27 127.26&#10;  Q 348.86 138.26 333.06 147.17&#10;  Q 332.97 147.22 329.20 149.56&#10;  Q 325.65 151.76 321.73 153.23&#10;  C 311.28 157.14 301.21 159.46 290.69 157.90&#10;  C 279.52 156.24 268.98 150.81 260.50 143.41"/>
<path stroke="#52a6cf" d="&#10;  M 265.37 143.76&#10;  Q 284.54 159.21 307.94 154.90&#10;  Q 317.14 153.20 329.14 147.98"/>
<path stroke="#6a6bb4" d="&#10;  M 427.10 194.47&#10;  C 415.74 186.66 404.44 177.95 395.97 166.85&#10;  C 383.27 150.21 382.14 130.46 384.26 110.29"/>
<path stroke="#815dad" d="&#10;  M 529.14 74.99&#10;  Q 531.73 78.35 536.86 79.60"/>
<path stroke="#706ab5" d="&#10;  M 536.86 79.60&#10;  L 542.92 82.93"/>
<path stroke="#815dad" d="&#10;  M 542.92 82.93&#10;  Q 543.96 84.71 546.06 86.16&#10;  Q 561.73 96.97 577.36 104.48&#10;  A 0.22 0.22 0.0 0 0 577.67 104.33&#10;  L 577.75 104.03&#10;  A 0.09 0.09 0.0 0 0 577.71 103.94&#10;  L 573.25 101.38"/>
<path stroke="#706ab5" d="&#10;  M 573.25 101.38&#10;  L 576.43 102.51"/>
<path stroke="#7367b3" d="&#10;  M 576.43 102.51&#10;  Q 576.72 102.61 577.00 102.72&#10;  Q 576.72 102.61 576.43 102.51"/>
<path stroke="#706ab5" d="&#10;  M 576.43 102.51&#10;  L 571.51 99.54&#10;  Q 572.47 99.82 573.39 99.75"/>
<path stroke="#657dbf" d="&#10;  M 575.48 100.84&#10;  C 585.99 107.00 599.21 109.50 611.05 106.03&#10;  C 617.26 104.21 618.93 99.86 622.82 96.09"/>
<path stroke="#815dad" d="&#10;  M 456.56 157.42&#10;  C 446.94 144.56 437.06 128.81 438.64 112.07&#10;  C 440.19 95.70 452.47 79.34 465.57 68.73"/>
<path stroke="#5978bc" d="&#10;  M 571.51 99.54&#10;  Q 569.95 98.20 568.06 97.63&#10;  A 0.11 0.11 0.0 0 0 567.98 97.83&#10;  L 571.51 99.54"/>
<path stroke="#676eb6" d="&#10;  M 573.25 101.38&#10;  L 558.84 92.92"/>
<path stroke="#6072b7" d="&#10;  M 558.84 92.92&#10;  Q 551.51 86.98 542.92 82.93"/>
<path stroke="#676eb6" d="&#10;  M 529.14 74.99&#10;  L 536.86 79.60"/>
<path stroke="#4b8fc8" d="&#10;  M 306.51 114.62&#10;  Q 295.20 125.22 283.23 134.49&#10;  Q 275.20 140.71 265.37 143.76"/>
<path stroke="#47bad9" d="&#10;  M 265.37 143.76&#10;  C 251.57 133.55 240.75 118.43 231.57 102.93&#10;  Q 223.05 88.56 216.17 73.32&#10;  A 0.41 0.40 -23.7 0 0 215.64 73.12&#10;  L 215.63 73.13&#10;  A 0.43 0.43 0.0 0 0 215.40 73.69&#10;  Q 223.21 93.04 235.90 113.37&#10;  Q 246.83 130.89 260.50 143.41"/>
<path stroke="#4e8cc6" d="&#10;  M 260.50 143.41&#10;  Q 258.92 152.01 253.99 159.11&#10;  C 247.55 168.39 243.64 174.07 240.24 183.29"/>
<path stroke="#5585c1" d="&#10;  M 209.96 98.80&#10;  Q 210.25 98.22 210.00 97.28&#10;  Q 205.31 79.32 198.79 61.95&#10;  Q 197.36 58.12 193.66 50.52"/>
<path stroke="#7165af" d="&#10;  M 542.92 82.93&#10;  L 558.84 92.92"/>
<path stroke="#47bad9" d="&#10;  M 230.77 22.32&#10;  Q 222.97 30.55 215.02 38.68&#10;  C 208.85 44.99 202.75 49.98 193.66 50.52"/>
<path stroke="#5c9dc8" d="&#10;  M 193.66 50.52&#10;  Q 189.77 42.47 184.31 35.52"/>
<path stroke="#52a6cf" d="&#10;  M 184.31 35.52&#10;  Q 176.23 24.56 164.53 18.28"/>
<path stroke="#47bad9" d="&#10;  M 164.53 18.28&#10;  C 154.37 11.56 143.06 10.74 132.01 12.10&#10;  Q 97.78 16.32 71.54 39.28&#10;  Q 63.76 46.09 40.86 68.01"/>
<path stroke="#4b8fc8" d="&#10;  M 164.53 18.28&#10;  Q 160.88 16.27 157.59 15.77&#10;  C 143.73 13.63 130.40 14.10 117.28 19.16"/>
<path stroke="#4497cd" d="&#10;  M 117.28 19.16&#10;  Q 106.65 21.93 99.74 26.20&#10;  Q 95.89 28.57 81.72 39.21&#10;  Q 76.44 43.17 68.29 52.28&#10;  A 0.15 0.15 0.0 0 0 68.30 52.49&#10;  A 0.18 0.18 0.0 0 0 68.56 52.49&#10;  Q 73.06 48.07 77.77 43.80&#10;  C 85.36 36.94 95.41 31.11 105.42 25.10&#10;  A 0.13 0.13 0.0 0 1 105.59 25.14&#10;  L 105.60 25.15&#10;  A 0.14 0.14 0.0 0 1 105.56 25.35&#10;  L 100.50 28.76"/>
<path stroke="#4b8fc8" d="&#10;  M 100.50 28.76&#10;  C 82.80 41.19 67.88 54.77 56.38 73.47&#10;  C 47.26 88.30 51.10 100.77 58.50 115.45&#10;  C 70.06 138.37 81.20 154.62 99.35 179.86"/>
<path stroke="#6072b7" d="&#10;  M 184.31 35.52&#10;  C 169.88 33.80 156.14 33.95 144.26 42.97&#10;  C 129.03 54.55 122.84 76.41 124.51 95.44&#10;  C 125.68 108.80 129.99 121.20 135.33 133.53"/>
<path stroke="#4f83c4" d="&#10;  M 100.50 28.76&#10;  Q 110.66 25.15 120.77 21.19&#10;  C 129.68 17.70 136.50 15.62 144.57 15.88&#10;  Q 154.45 16.20 158.00 16.22&#10;  A 0.15 0.09 41.8 0 0 157.93 15.99&#10;  Q 157.90 15.98 157.87 15.96&#10;  A 0.39 0.14 -0.3 0 0 157.61 15.87&#10;  Q 144.58 14.61 141.39 14.87&#10;  Q 131.77 15.64 129.06 16.46&#10;  Q 123.19 18.23 117.28 19.16"/>
</g>
<path fill="#8a58ac" d="&#10;  M 588.13 17.26&#10;  Q 563.29 32.67 532.61 40.22&#10;  C 501.17 47.95 471.38 52.88 439.30 53.49&#10;  Q 455.09 34.58 475.40 21.25&#10;  C 498.05 6.39 526.16 -2.01 553.18 3.04&#10;  Q 572.28 6.60 588.13 17.26&#10;  Z"/>
<path fill="#4ed1e0" d="&#10;  M 230.77 22.32&#10;  Q 222.97 30.55 215.02 38.68&#10;  C 208.85 44.99 202.75 49.98 193.66 50.52&#10;  Q 189.77 42.47 184.31 35.52&#10;  Q 176.23 24.56 164.53 18.28&#10;  C 154.37 11.56 143.06 10.74 132.01 12.10&#10;  Q 97.78 16.32 71.54 39.28&#10;  Q 63.76 46.09 40.86 68.01&#10;  C 69.42 28.06 114.42 1.29 164.25 1.84&#10;  Q 200.41 2.24 230.77 22.32&#10;  Z"/>
<path fill="#3fa2d1" d="&#10;  M 164.53 18.28&#10;  Q 160.88 16.27 157.59 15.77&#10;  C 143.73 13.63 130.40 14.10 117.28 19.16&#10;  Q 106.65 21.93 99.74 26.20&#10;  Q 95.89 28.57 81.72 39.21&#10;  Q 76.44 43.17 68.29 52.28&#10;  A 0.15 0.15 0.0 0 0 68.30 52.49&#10;  A 0.18 0.18 0.0 0 0 68.56 52.49&#10;  Q 73.06 48.07 77.77 43.80&#10;  C 85.36 36.94 95.41 31.11 105.42 25.10&#10;  A 0.13 0.13 0.0 0 1 105.59 25.14&#10;  L 105.60 25.15&#10;  A 0.14 0.14 0.0 0 1 105.56 25.35&#10;  L 100.50 28.76&#10;  C 82.80 41.19 67.88 54.77 56.38 73.47&#10;  C 47.26 88.30 51.10 100.77 58.50 115.45&#10;  C 70.06 138.37 81.20 154.62 99.35 179.86&#10;  Q 80.41 207.63 74.77 214.76&#10;  Q 65.19 226.88 54.02 236.01&#10;  Q 50.75 238.69 44.79 241.52&#10;  C 35.34 246.01 24.31 245.27 16.97 237.49&#10;  C 9.16 229.20 5.38 217.49 3.58 206.17&#10;  Q 0.83 188.83 2.42 169.97&#10;  Q 6.03 127.28 28.17 87.89&#10;  Q 34.82 76.06 40.86 68.01&#10;  Q 63.76 46.09 71.54 39.28&#10;  Q 97.78 16.32 132.01 12.10&#10;  C 143.06 10.74 154.37 11.56 164.53 18.28&#10;  Z"/>
<path fill="#567bbe" d="&#10;  M 164.53 18.28&#10;  Q 176.23 24.56 184.31 35.52&#10;  C 169.88 33.80 156.14 33.95 144.26 42.97&#10;  C 129.03 54.55 122.84 76.41 124.51 95.44&#10;  C 125.68 108.80 129.99 121.20 135.33 133.53&#10;  Q 125.56 144.60 122.76 148.01&#10;  Q 112.94 159.97 99.35 179.86&#10;  C 81.20 154.62 70.06 138.37 58.50 115.45&#10;  C 51.10 100.77 47.26 88.30 56.38 73.47&#10;  C 67.88 54.77 82.80 41.19 100.50 28.76&#10;  Q 110.66 25.15 120.77 21.19&#10;  C 129.68 17.70 136.50 15.62 144.57 15.88&#10;  Q 154.45 16.20 158.00 16.22&#10;  A 0.15 0.09 41.8 0 0 157.93 15.99&#10;  Q 157.90 15.98 157.87 15.96&#10;  A 0.39 0.14 -0.3 0 0 157.61 15.87&#10;  Q 144.58 14.61 141.39 14.87&#10;  Q 131.77 15.64 129.06 16.46&#10;  Q 123.19 18.23 117.28 19.16&#10;  C 130.40 14.10 143.73 13.63 157.59 15.77&#10;  Q 160.88 16.27 164.53 18.28&#10;  Z"/>
<path fill="#488bc9" d="&#10;  M 100.50 28.76&#10;  L 105.56 25.35&#10;  A 0.14 0.14 0.0 0 0 105.60 25.15&#10;  L 105.59 25.14&#10;  A 0.13 0.13 0.0 0 0 105.42 25.10&#10;  C 95.41 31.11 85.36 36.94 77.77 43.80&#10;  Q 73.06 48.07 68.56 52.49&#10;  A 0.18 0.18 0.0 0 1 68.30 52.49&#10;  A 0.15 0.15 0.0 0 1 68.29 52.28&#10;  Q 76.44 43.17 81.72 39.21&#10;  Q 95.89 28.57 99.74 26.20&#10;  Q 106.65 21.93 117.28 19.16&#10;  Q 123.19 18.23 129.06 16.46&#10;  Q 131.77 15.64 141.39 14.87&#10;  Q 144.58 14.61 157.61 15.87&#10;  A 0.39 0.14 -0.3 0 1 157.87 15.96&#10;  Q 157.90 15.98 157.93 15.99&#10;  A 0.15 0.09 41.8 0 1 158.00 16.22&#10;  Q 154.45 16.20 144.57 15.88&#10;  C 136.50 15.62 129.68 17.70 120.77 21.19&#10;  Q 110.66 25.15 100.50 28.76&#10;  Z"/>
<path fill="#6a68b0" d="&#10;  M 616.07 47.51&#10;  C 593.29 57.73 571.60 68.13 551.40 81.55&#10;  Q 537.79 72.71 524.26 67.72&#10;  C 491.90 55.78 457.19 63.90 427.67 79.44&#10;  Q 420.48 83.23 413.25 87.45&#10;  Q 425.06 69.23 439.30 53.49&#10;  C 471.38 52.88 501.17 47.95 532.61 40.22&#10;  Q 563.29 32.67 588.13 17.26&#10;  Q 606.20 28.96 616.07 47.51&#10;  Z"/>
<path fill="#3fa2d1" d="&#10;  M 306.51 114.62&#10;  Q 295.20 125.22 283.23 134.49&#10;  Q 275.20 140.71 265.37 143.76&#10;  C 251.57 133.55 240.75 118.43 231.57 102.93&#10;  Q 223.05 88.56 216.17 73.32&#10;  A 0.41 0.40 -23.7 0 0 215.64 73.12&#10;  L 215.63 73.13&#10;  A 0.43 0.43 0.0 0 0 215.40 73.69&#10;  Q 223.21 93.04 235.90 113.37&#10;  Q 246.83 130.89 260.50 143.41&#10;  Q 258.92 152.01 253.99 159.11&#10;  C 247.55 168.39 243.64 174.07 240.24 183.29&#10;  C 226.66 157.30 218.84 129.28 210.90 100.62&#10;  Q 210.78 100.20 209.96 98.80&#10;  Q 210.25 98.22 210.00 97.28&#10;  Q 205.31 79.32 198.79 61.95&#10;  Q 197.36 58.12 193.66 50.52&#10;  C 202.75 49.98 208.85 44.99 215.02 38.68&#10;  Q 222.97 30.55 230.77 22.32&#10;  Q 250.48 35.33 264.35 51.39&#10;  Q 274.75 63.44 285.97 80.77&#10;  Q 293.43 92.27 306.51 114.62&#10;  Z"/>
<path fill="#6a68b0" d="&#10;  M 184.31 35.52&#10;  Q 189.77 42.47 193.66 50.52&#10;  Q 197.36 58.12 198.79 61.95&#10;  Q 205.31 79.32 210.00 97.28&#10;  Q 210.25 98.22 209.96 98.80&#10;  Q 194.92 96.95 181.12 101.61&#10;  C 163.89 107.43 147.87 120.23 135.33 133.53&#10;  C 129.99 121.20 125.68 108.80 124.51 95.44&#10;  C 122.84 76.41 129.03 54.55 144.26 42.97&#10;  C 156.14 33.95 169.88 33.80 184.31 35.52&#10;  Z"/>
<path fill="#488bc9" d="&#10;  M 624.80 83.77&#10;  Q 622.70 83.73 621.79 85.55&#10;  C 618.48 92.14 614.17 97.66 606.91 100.14&#10;  C 596.91 103.56 588.65 101.34 579.28 97.70&#10;  Q 565.02 90.43 551.40 81.55&#10;  C 571.60 68.13 593.29 57.73 616.07 47.51&#10;  Q 625.48 64.52 624.80 83.77&#10;  Z"/>
<path fill="#4ed1e0" d="&#10;  M 551.40 81.55&#10;  Q 565.02 90.43 579.28 97.70&#10;  Q 576.85 98.19 580.68 100.18&#10;  A 0.12 0.12 0.0 0 1 580.60 100.41&#10;  L 576.47 99.40&#10;  A 0.11 0.07 6.9 0 0 576.34 99.46&#10;  Q 576.34 99.52 576.40 99.54&#10;  Q 579.12 100.52 583.45 102.06&#10;  A 0.11 0.10 15.6 0 1 583.52 102.18&#10;  L 583.45 102.44&#10;  A 0.38 0.38 0.0 0 1 582.99 102.72&#10;  L 575.48 100.84&#10;  Q 574.13 100.46 573.39 99.75&#10;  Q 560.97 92.03 548.49 84.51&#10;  Q 539.25 78.95 529.14 74.99&#10;  Q 527.26 73.83 524.89 73.42&#10;  A 0.86 0.81 69.3 0 1 524.48 73.22&#10;  Q 524.29 73.06 524.08 72.97&#10;  Q 503.80 64.68 481.68 66.38&#10;  Q 475.22 66.88 465.57 68.73&#10;  Q 443.43 73.48 423.73 84.26&#10;  Q 402.72 95.74 384.26 110.29&#10;  L 362.77 127.10&#10;  A 0.40 0.33 14.0 0 1 362.60 127.18&#10;  L 362.34 127.22&#10;  A 0.15 0.15 0.0 0 0 362.27 127.26&#10;  Q 348.86 138.26 333.06 147.17&#10;  Q 332.97 147.22 329.20 149.56&#10;  Q 325.65 151.76 321.73 153.23&#10;  C 311.28 157.14 301.21 159.46 290.69 157.90&#10;  C 279.52 156.24 268.98 150.81 260.50 143.41&#10;  Q 246.83 130.89 235.90 113.37&#10;  Q 223.21 93.04 215.40 73.69&#10;  A 0.43 0.43 0.0 0 1 215.63 73.13&#10;  L 215.64 73.12&#10;  A 0.41 0.40 -23.7 0 1 216.17 73.32&#10;  Q 223.05 88.56 231.57 102.93&#10;  C 240.75 118.43 251.57 133.55 265.37 143.76&#10;  Q 284.54 159.21 307.94 154.90&#10;  Q 317.14 153.20 329.14 147.98&#10;  Q 343.68 140.74 355.96 131.21&#10;  Q 364.53 124.56 379.36 112.71&#10;  Q 386.67 106.86 396.24 100.01&#10;  Q 404.91 93.81 413.25 87.45&#10;  Q 420.48 83.23 427.67 79.44&#10;  C 457.19 63.90 491.90 55.78 524.26 67.72&#10;  Q 537.79 72.71 551.40 81.55&#10;  Z"/>
<path fill="#8a58ac" d="&#10;  M 529.14 74.99&#10;  Q 531.73 78.35 536.86 79.60&#10;  L 542.92 82.93&#10;  Q 543.96 84.71 546.06 86.16&#10;  Q 561.73 96.97 577.36 104.48&#10;  A 0.22 0.22 0.0 0 0 577.67 104.33&#10;  L 577.75 104.03&#10;  A 0.09 0.09 0.0 0 0 577.71 103.94&#10;  L 573.25 101.38&#10;  L 576.43 102.51&#10;  Q 576.72 102.61 577.00 102.72&#10;  Q 576.72 102.61 576.43 102.51&#10;  L 571.51 99.54&#10;  Q 572.47 99.82 573.39 99.75&#10;  Q 574.13 100.46 575.48 100.84&#10;  C 585.99 107.00 599.21 109.50 611.05 106.03&#10;  C 617.26 104.21 618.93 99.86 622.82 96.09&#10;  C 615.19 117.20 594.72 125.65 573.48 124.78&#10;  C 559.27 124.20 546.99 121.51 531.32 118.15&#10;  C 511.65 113.93 494.28 114.98 479.48 129.23&#10;  C 470.74 137.64 463.61 147.77 456.56 157.42&#10;  C 446.94 144.56 437.06 128.81 438.64 112.07&#10;  C 440.19 95.70 452.47 79.34 465.57 68.73&#10;  Q 475.22 66.88 481.68 66.38&#10;  Q 503.80 64.68 524.08 72.97&#10;  Q 524.29 73.06 524.48 73.22&#10;  A 0.86 0.81 69.3 0 0 524.89 73.42&#10;  Q 527.26 73.83 529.14 74.99&#10;  Z"/>
<path fill="#7761ae" d="&#10;  M 465.57 68.73&#10;  C 452.47 79.34 440.19 95.70 438.64 112.07&#10;  C 437.06 128.81 446.94 144.56 456.56 157.42&#10;  Q 442.88 177.04 427.10 194.47&#10;  C 415.74 186.66 404.44 177.95 395.97 166.85&#10;  C 383.27 150.21 382.14 130.46 384.26 110.29&#10;  Q 402.72 95.74 423.73 84.26&#10;  Q 443.43 73.48 465.57 68.73&#10;  Z"/>
<path fill="#7761ae" d="&#10;  M 529.14 74.99&#10;  L 536.86 79.60&#10;  Q 531.73 78.35 529.14 74.99&#10;  Z"/>
<path fill="#567bbe" d="&#10;  M 573.39 99.75&#10;  Q 572.47 99.82 571.51 99.54&#10;  Q 569.95 98.20 568.06 97.63&#10;  A 0.11 0.11 0.0 0 0 567.98 97.83&#10;  L 571.51 99.54&#10;  L 576.43 102.51&#10;  L 573.25 101.38&#10;  L 558.84 92.92&#10;  Q 551.51 86.98 542.92 82.93&#10;  L 536.86 79.60&#10;  L 529.14 74.99&#10;  Q 539.25 78.95 548.49 84.51&#10;  Q 560.97 92.03 573.39 99.75&#10;  Z"/>
<path fill="#7761ae" d="&#10;  M 542.92 82.93&#10;  L 558.84 92.92&#10;  L 573.25 101.38&#10;  L 577.71 103.94&#10;  A 0.09 0.09 0.0 0 1 577.75 104.03&#10;  L 577.67 104.33&#10;  A 0.22 0.22 0.0 0 1 577.36 104.48&#10;  Q 561.73 96.97 546.06 86.16&#10;  Q 543.96 84.71 542.92 82.93&#10;  Z"/>
<path fill="#6a68b0" d="&#10;  M 558.84 92.92&#10;  L 542.92 82.93&#10;  Q 551.51 86.98 558.84 92.92&#10;  Z"/>
<path fill="#3fa2d1" d="&#10;  M 624.80 83.77&#10;  Q 624.53 90.02 622.82 96.09&#10;  C 618.93 99.86 617.26 104.21 611.05 106.03&#10;  C 599.21 109.50 585.99 107.00 575.48 100.84&#10;  L 582.99 102.72&#10;  A 0.38 0.38 0.0 0 0 583.45 102.44&#10;  L 583.52 102.18&#10;  A 0.11 0.10 15.6 0 0 583.45 102.06&#10;  Q 579.12 100.52 576.40 99.54&#10;  Q 576.34 99.52 576.34 99.46&#10;  A 0.11 0.07 6.9 0 1 576.47 99.40&#10;  L 580.60 100.41&#10;  A 0.12 0.12 0.0 0 0 580.68 100.18&#10;  Q 576.85 98.19 579.28 97.70&#10;  C 588.65 101.34 596.91 103.56 606.91 100.14&#10;  C 614.17 97.66 618.48 92.14 621.79 85.55&#10;  Q 622.70 83.73 624.80 83.77&#10;  Z"/>
<path fill="#5c75ba" d="&#10;  M 571.51 99.54&#10;  L 567.98 97.83&#10;  A 0.11 0.11 0.0 0 1 568.06 97.63&#10;  Q 569.95 98.20 571.51 99.54&#10;  Z"/>
<path fill="#5c75ba" d="&#10;  M 576.43 102.51&#10;  Q 576.72 102.61 577.00 102.72&#10;  Q 576.72 102.61 576.43 102.51&#10;  Z"/>
<path fill="#5c75ba" d="&#10;  M 384.26 110.29&#10;  C 382.14 130.46 383.27 150.21 395.97 166.85&#10;  C 404.44 177.95 415.74 186.66 427.10 194.47&#10;  Q 410.40 213.01 389.67 226.67&#10;  C 372.72 237.84 353.38 245.33 332.76 247.05&#10;  C 315.13 248.52 296.40 243.33 282.41 234.10&#10;  C 263.71 221.76 249.75 203.50 240.24 183.29&#10;  C 243.64 174.07 247.55 168.39 253.99 159.11&#10;  Q 258.92 152.01 260.50 143.41&#10;  C 268.98 150.81 279.52 156.24 290.69 157.90&#10;  C 301.21 159.46 311.28 157.14 321.73 153.23&#10;  Q 325.65 151.76 329.20 149.56&#10;  Q 332.97 147.22 333.06 147.17&#10;  Q 348.86 138.26 362.27 127.26&#10;  A 0.15 0.15 0.0 0 1 362.34 127.22&#10;  L 362.60 127.18&#10;  A 0.40 0.33 14.0 0 0 362.77 127.10&#10;  L 384.26 110.29&#10;  Z"/>
<path fill="#567bbe" d="&#10;  M 329.14 147.98&#10;  Q 317.14 153.20 307.94 154.90&#10;  Q 284.54 159.21 265.37 143.76&#10;  Q 275.20 140.71 283.23 134.49&#10;  Q 295.20 125.22 306.51 114.62&#10;  C 313.60 126.18 320.46 137.34 329.14 147.98&#10;  Z"/>
</svg>